<svg width="25" height="175" viewBox="0 0 25 175" fill="none" xmlns="http://www.w3.org/2000/svg">
<path d="M20.5763 171.314C20.5763 171.57 20.5443 171.89 20.4803 172.274C20.4163 172.658 20.267 173.021 20.0323 173.362C19.7763 173.704 19.3816 173.96 18.8483 174.13C18.315 174.301 17.5683 174.312 16.6083 174.162L8.00031 172.786C6.80565 172.594 5.94165 172.296 5.40831 171.89C4.87498 171.485 4.54431 171.016 4.41631 170.482C4.26698 169.949 4.19231 169.405 4.19231 168.85C4.19231 168.168 4.30965 167.528 4.54431 166.93C4.77898 166.333 5.17365 165.96 5.72831 165.81L4.48031 165.65L4.48031 164.082L20.3203 166.322L20.3203 167.698L17.6003 167.314C18.027 167.485 18.475 167.73 18.9443 168.05C19.3923 168.37 19.7763 168.797 20.0963 169.33C20.4163 169.842 20.5763 170.504 20.5763 171.314ZM19.5843 170.77C19.5843 170.258 19.4456 169.8 19.1683 169.394C18.8696 168.989 18.4963 168.648 18.0483 168.37C17.6003 168.093 17.131 167.869 16.6403 167.698C16.1496 167.506 15.7016 167.357 15.2963 167.25C14.891 167.144 14.5923 167.08 14.4003 167.058L6.91231 166.002C6.78431 166.045 6.58165 166.141 6.30431 166.29C6.02698 166.418 5.77098 166.653 5.53631 166.994C5.28031 167.314 5.15231 167.826 5.15231 168.53C5.15231 169.277 5.29098 169.842 5.56831 170.226C5.84565 170.589 6.22965 170.845 6.72031 170.994C7.18965 171.144 7.73365 171.272 8.35231 171.378L16.8323 172.658C17.4723 172.744 17.9843 172.733 18.3683 172.626C18.731 172.52 18.9976 172.349 19.1683 172.114C19.339 171.88 19.4563 171.645 19.5203 171.41C19.563 171.154 19.5843 170.941 19.5843 170.77ZM20.6403 159.109C20.6403 159.855 20.5763 160.485 20.4483 160.997C20.3203 161.509 20.0963 161.914 19.7763 162.213C19.435 162.49 18.9763 162.671 18.4003 162.757C17.8243 162.821 17.0883 162.789 16.1923 162.661L8.06431 161.509C6.57098 161.295 5.54698 160.837 4.99231 160.133C4.43765 159.429 4.16031 158.319 4.16031 156.805C4.16031 155.311 4.43765 154.287 4.99231 153.733C5.54698 153.178 6.57098 153.007 8.06431 153.221L10.0483 153.509L10.0483 155.045L7.96831 154.757C6.96565 154.607 6.24031 154.671 5.79231 154.949C5.34431 155.226 5.12031 155.887 5.12031 156.933C5.12031 157.978 5.34431 158.714 5.79231 159.141C6.24031 159.546 6.96565 159.823 7.96831 159.973L16.6403 161.189C17.7496 161.338 18.5283 161.274 18.9763 160.997C19.4243 160.719 19.6483 160.058 19.6483 159.013C19.6483 157.946 19.4243 157.21 18.9763 156.805C18.5283 156.399 17.7496 156.122 16.6403 155.973L14.5603 155.653L14.5603 154.117L16.1923 154.341C17.387 154.511 18.3043 154.778 18.9443 155.141C19.5843 155.503 20.0323 156.005 20.2883 156.645C20.523 157.285 20.6403 158.106 20.6403 159.109ZM20.5443 148.108C20.5443 149.004 20.4376 149.719 20.2243 150.252C19.9896 150.764 19.6803 151.137 19.2963 151.372C18.891 151.607 18.411 151.735 17.8563 151.756C17.3016 151.777 16.7043 151.745 16.0643 151.66L8.48031 150.604C7.71231 150.497 7.00831 150.305 6.36831 150.028C5.70698 149.729 5.18431 149.26 4.80031 148.62C4.41631 147.959 4.22431 147.02 4.22431 145.804C4.22431 144.908 4.34165 144.204 4.57631 143.692C4.78965 143.159 5.09898 142.785 5.50431 142.572C5.88831 142.337 6.33631 142.209 6.84831 142.188C7.36031 142.167 7.90431 142.199 8.48031 142.284L16.0643 143.308C16.9176 143.436 17.6856 143.649 18.3683 143.948C19.051 144.247 19.5843 144.727 19.9683 145.388C20.3523 146.028 20.5443 146.935 20.5443 148.108ZM19.4883 147.98C19.4883 147.148 19.339 146.529 19.0403 146.124C18.7203 145.697 18.315 145.399 17.8243 145.228C17.3123 145.057 16.7896 144.94 16.2563 144.876L8.48031 143.788C7.94698 143.703 7.43498 143.681 6.94431 143.724C6.45365 143.745 6.05898 143.916 5.76031 144.236C5.44031 144.556 5.28031 145.132 5.28031 145.964C5.28031 146.775 5.44031 147.393 5.76031 147.82C6.05898 148.225 6.45365 148.513 6.94431 148.684C7.43498 148.855 7.94698 148.983 8.48031 149.068L16.2563 150.156C16.7896 150.22 17.3123 150.241 17.8243 150.22C18.315 150.199 18.7203 150.028 19.0403 149.708C19.339 149.388 19.4883 148.812 19.4883 147.98ZM20.3203 140.695L4.48031 138.487L4.48031 136.951L10.6883 137.879C10.2616 137.751 9.69631 137.559 8.99231 137.303C8.28831 137.026 7.58431 136.684 6.88031 136.279C6.15498 135.852 5.54698 135.351 5.05631 134.775C4.56565 134.199 4.32031 133.559 4.32031 132.855C4.32031 132.77 4.32031 132.663 4.32031 132.535C4.32031 132.407 4.33098 132.311 4.35231 132.247L5.69631 132.471C5.67498 132.514 5.66431 132.588 5.66431 132.695C5.66431 132.78 5.66431 132.876 5.66431 132.983C5.66431 133.538 5.89898 134.071 6.36831 134.583C6.83765 135.074 7.44565 135.543 8.19231 135.991C8.93898 136.418 9.76031 136.802 10.6563 137.143C11.5523 137.484 12.4483 137.772 13.3443 138.007C14.2403 138.242 15.051 138.412 15.7763 138.519L20.3203 139.159L20.3203 140.695ZM20.5763 129.335C20.5763 130.146 20.4696 130.796 20.2563 131.287C20.043 131.756 19.7443 132.098 19.3603 132.311C18.9763 132.524 18.5176 132.642 17.9843 132.663C17.4296 132.684 16.8216 132.652 16.1603 132.567L8.22431 131.447C7.47765 131.34 6.80565 131.148 6.20831 130.871C5.58965 130.594 5.09898 130.167 4.73631 129.591C4.37365 128.994 4.19231 128.183 4.19231 127.159C4.19231 126.284 4.32031 125.623 4.57631 125.175C4.81098 124.706 5.12031 124.386 5.50431 124.215L0.160311 123.479L0.160311 121.943L20.3203 124.791L20.3203 125.847L18.8163 125.815C19.115 125.964 19.403 126.178 19.6803 126.455C19.9363 126.732 20.1496 127.106 20.3203 127.575C20.491 128.044 20.5763 128.631 20.5763 129.335ZM19.5843 128.951C19.5843 128.268 19.467 127.724 19.2323 127.319C18.9763 126.892 18.6456 126.572 18.2403 126.359C17.835 126.146 17.387 125.986 16.8963 125.879C16.4056 125.772 15.9363 125.698 15.4883 125.655C14.059 125.442 12.6296 125.239 11.2003 125.047C9.77098 124.855 8.34165 124.652 6.91231 124.439C6.67765 124.46 6.43231 124.546 6.17631 124.695C5.92031 124.844 5.69631 125.09 5.50431 125.431C5.29098 125.751 5.18431 126.231 5.18431 126.871C5.18431 127.746 5.35498 128.396 5.69631 128.823C6.03765 129.228 6.46431 129.495 6.97631 129.623C7.48831 129.751 8.02165 129.858 8.57631 129.943L16.2563 131.031C16.6616 131.074 17.067 131.116 17.4723 131.159C17.8776 131.18 18.2403 131.138 18.5603 131.031C18.8803 130.924 19.1363 130.722 19.3283 130.423C19.499 130.103 19.5843 129.612 19.5843 128.951ZM20.5763 118.189C20.5763 118.445 20.5443 118.765 20.4803 119.149C20.4163 119.533 20.267 119.896 20.0323 120.237C19.7763 120.579 19.3816 120.835 18.8483 121.005C18.315 121.176 17.5683 121.187 16.6083 121.037L8.00031 119.661C6.80565 119.469 5.94165 119.171 5.40831 118.765C4.87498 118.36 4.54431 117.891 4.41631 117.357C4.26698 116.824 4.19231 116.28 4.19231 115.725C4.19231 115.043 4.30965 114.403 4.54431 113.805C4.77898 113.208 5.17365 112.835 5.72831 112.685L4.48031 112.525L4.48031 110.957L20.3203 113.197L20.3203 114.573L17.6003 114.189C18.027 114.36 18.475 114.605 18.9443 114.925C19.3923 115.245 19.7763 115.672 20.0963 116.205C20.4163 116.717 20.5763 117.379 20.5763 118.189ZM19.5843 117.645C19.5843 117.133 19.4456 116.675 19.1683 116.269C18.8696 115.864 18.4963 115.523 18.0483 115.245C17.6003 114.968 17.131 114.744 16.6403 114.573C16.1496 114.381 15.7016 114.232 15.2963 114.125C14.891 114.019 14.5923 113.955 14.4003 113.933L6.91231 112.877C6.78431 112.92 6.58165 113.016 6.30431 113.165C6.02698 113.293 5.77098 113.528 5.53631 113.869C5.28031 114.189 5.15231 114.701 5.15231 115.405C5.15231 116.152 5.29098 116.717 5.56831 117.101C5.84565 117.464 6.22965 117.72 6.72031 117.869C7.18965 118.019 7.73365 118.147 8.35231 118.253L16.8323 119.533C17.4723 119.619 17.9843 119.608 18.3683 119.501C18.731 119.395 18.9976 119.224 19.1683 118.989C19.339 118.755 19.4563 118.52 19.5203 118.285C19.563 118.029 19.5843 117.816 19.5843 117.645ZM2.91231 114.573C2.91231 115.149 2.81631 115.619 2.62431 115.981C2.43231 116.344 2.19765 116.621 1.92031 116.813C1.64298 116.984 1.34431 117.101 1.02431 117.165C0.704312 117.208 0.416312 117.219 0.160311 117.197L0.160311 116.237C0.778979 116.216 1.24831 116.045 1.56831 115.725C1.88831 115.405 2.04831 114.979 2.04831 114.445C2.04831 113.869 1.89898 113.379 1.60031 112.973C1.28031 112.547 0.800312 112.248 0.160312 112.077L0.160312 111.117C0.544312 111.203 0.949645 111.384 1.37631 111.661C1.80298 111.917 2.16565 112.291 2.46431 112.781C2.76298 113.251 2.91231 113.848 2.91231 114.573ZM24.0323 104.082L4.48031 101.362L4.48031 99.986L5.92031 100.082C5.45098 99.826 5.05631 99.4634 4.73631 98.994C4.41631 98.5034 4.25631 97.7567 4.25631 96.754C4.25631 95.666 4.43765 94.8874 4.80031 94.418C5.16298 93.9274 5.65365 93.6287 6.27231 93.522C6.86965 93.4154 7.55231 93.426 8.32031 93.554L16.1603 94.642C16.971 94.7487 17.707 94.9407 18.3683 95.218C19.0296 95.474 19.563 95.9007 19.9683 96.498C20.3523 97.074 20.5443 97.9167 20.5443 99.026C20.5443 99.8367 20.4163 100.477 20.1603 100.946C19.9043 101.415 19.595 101.735 19.2323 101.906L24.0323 102.578L24.0323 104.082ZM19.5203 99.282C19.5203 98.386 19.3603 97.7354 19.0403 97.33C18.699 96.9247 18.283 96.6474 17.7923 96.498C17.2803 96.3487 16.7576 96.242 16.2243 96.178L8.60831 95.122C8.20298 95.058 7.80831 95.0154 7.42431 94.994C7.01898 94.9727 6.65631 95.0154 6.33631 95.122C6.01631 95.2074 5.77098 95.4207 5.60031 95.762C5.40831 96.1034 5.31231 96.6154 5.31231 97.298C5.31231 97.9594 5.44031 98.4927 5.69631 98.898C5.93098 99.282 6.24031 99.5807 6.62431 99.794C7.00831 100.007 7.43498 100.167 7.90431 100.274C8.35231 100.359 8.77898 100.423 9.18431 100.466L16.4483 101.49C17.003 101.575 17.515 101.607 17.9843 101.586C18.4536 101.543 18.827 101.362 19.1043 101.042C19.3816 100.701 19.5203 100.114 19.5203 99.282ZM20.3203 91.945L4.48031 89.737L4.48031 88.201L10.6883 89.129C10.2616 89.001 9.69631 88.809 8.99231 88.553C8.28831 88.2757 7.58431 87.9344 6.88031 87.529C6.15498 87.1024 5.54698 86.601 5.05631 86.025C4.56565 85.449 4.32031 84.809 4.32031 84.105C4.32031 84.0197 4.32031 83.913 4.32031 83.785C4.32031 83.657 4.33098 83.561 4.35231 83.497L5.69631 83.721C5.67498 83.7637 5.66431 83.8384 5.66431 83.945C5.66431 84.0304 5.66431 84.1264 5.66431 84.233C5.66431 84.7877 5.89898 85.321 6.36831 85.833C6.83765 86.3237 7.44565 86.793 8.19231 87.241C8.93898 87.6677 9.76031 88.0517 10.6563 88.393C11.5523 88.7344 12.4483 89.0224 13.3443 89.257C14.2403 89.4917 15.051 89.6624 15.7763 89.769L20.3203 90.409L20.3203 91.945ZM20.5443 80.233C20.5443 81.129 20.4376 81.8437 20.2243 82.377C19.9896 82.889 19.6803 83.2624 19.2963 83.497C18.891 83.7317 18.411 83.8597 17.8563 83.881C17.3016 83.9024 16.7043 83.8704 16.0643 83.785L8.48031 82.729C7.71231 82.6224 7.00831 82.4304 6.36831 82.153C5.70698 81.8544 5.18431 81.385 4.80031 80.745C4.41631 80.0837 4.22431 79.145 4.22431 77.929C4.22431 77.033 4.34165 76.329 4.57631 75.817C4.78965 75.2837 5.09898 74.9104 5.50431 74.697C5.88831 74.4624 6.33631 74.3344 6.84831 74.313C7.36031 74.2917 7.90431 74.3237 8.48031 74.409L16.0643 75.433C16.9176 75.561 17.6856 75.7744 18.3683 76.073C19.051 76.3717 19.5843 76.8517 19.9683 77.513C20.3523 78.153 20.5443 79.0597 20.5443 80.233ZM19.4883 80.105C19.4883 79.273 19.339 78.6544 19.0403 78.249C18.7203 77.8224 18.315 77.5237 17.8243 77.353C17.3123 77.1824 16.7896 77.065 16.2563 77.001L8.48031 75.913C7.94698 75.8277 7.43498 75.8064 6.94431 75.849C6.45365 75.8704 6.05898 76.041 5.76031 76.361C5.44031 76.681 5.28031 77.257 5.28031 78.089C5.28031 78.8997 5.44031 79.5184 5.76031 79.945C6.05898 80.3504 6.45365 80.6384 6.94431 80.809C7.43498 80.9797 7.94698 81.1077 8.48031 81.193L16.2563 82.281C16.7896 82.345 17.3123 82.3664 17.8243 82.345C18.315 82.3237 18.7203 82.153 19.0403 81.833C19.339 81.513 19.4883 80.937 19.4883 80.105ZM20.3203 72.852L4.48031 70.612L4.48031 69.108L20.3203 71.348L20.3203 72.852ZM2.49631 69.428C2.49631 69.684 2.41098 69.8974 2.24031 70.068C2.04831 70.2387 1.82431 70.324 1.56831 70.324C1.33365 70.324 1.13098 70.2387 0.960313 70.068C0.789646 69.8974 0.704313 69.684 0.704313 69.428C0.704313 69.172 0.789646 68.9587 0.960313 68.788C1.13098 68.596 1.33365 68.5 1.56831 68.5C1.82431 68.5 2.04831 68.596 2.24031 68.788C2.41098 68.9587 2.49631 69.172 2.49631 69.428ZM20.6403 63.9838C20.6403 64.9651 20.5123 65.7544 20.2563 66.3518C20.0003 66.9278 19.563 67.3118 18.9443 67.5038C18.3043 67.6958 17.387 67.7064 16.1923 67.5358L8.06431 66.3838C6.57098 66.1704 5.56831 65.6798 5.05631 64.9118C4.52298 64.1224 4.25631 63.0451 4.25631 61.6798C4.25631 60.0371 4.58698 58.9278 5.24831 58.3518C5.88831 57.7758 6.98698 57.6478 8.54431 57.9678C9.48298 58.1811 10.2403 58.5971 10.8163 59.2158C11.3923 59.8344 11.8403 60.5491 12.1603 61.3598C12.4803 62.1704 12.715 62.9598 12.8643 63.7278C12.9923 64.4958 13.0776 65.1144 13.1203 65.5838L16.5123 66.0638C17.6643 66.2344 18.475 66.1811 18.9443 65.9038C19.3923 65.6051 19.6163 64.9331 19.6163 63.8878C19.6163 62.8211 19.3923 62.0851 18.9443 61.6798C18.4963 61.2531 17.6856 60.9651 16.5123 60.8158L14.6883 60.5598L14.6883 59.0558L16.3523 59.2798C17.483 59.4291 18.3576 59.6744 18.9763 60.0158C19.595 60.3571 20.0323 60.8478 20.2883 61.4878C20.523 62.1064 20.6403 62.9384 20.6403 63.9838ZM12.0963 65.4238C12.0536 64.9544 11.979 64.4211 11.8723 63.8238C11.7443 63.2051 11.5523 62.5971 11.2963 61.9998C11.019 61.4024 10.6563 60.8904 10.2083 60.4638C9.76031 60.0158 9.19498 59.7171 8.51231 59.5678C7.46698 59.3118 6.65631 59.3118 6.08031 59.5678C5.48298 59.8238 5.18431 60.5064 5.18431 61.6158C5.18431 62.6611 5.40831 63.4291 5.85631 63.9198C6.30431 64.4104 7.09365 64.7411 8.22431 64.9118L12.0963 65.4238ZM20.6403 53.015C20.6403 53.7617 20.5763 54.391 20.4483 54.903C20.3203 55.415 20.0963 55.8204 19.7763 56.119C19.435 56.3964 18.9763 56.5777 18.4003 56.663C17.8243 56.727 17.0883 56.695 16.1923 56.567L8.06431 55.415C6.57098 55.2017 5.54698 54.743 4.99231 54.039C4.43765 53.335 4.16031 52.2257 4.16031 50.711C4.16031 49.2177 4.43765 48.1937 4.99231 47.639C5.54698 47.0844 6.57098 46.9137 8.06431 47.127L10.0483 47.415L10.0483 48.951L7.96831 48.663C6.96565 48.5137 6.24031 48.5777 5.79231 48.855C5.34431 49.1324 5.12031 49.7937 5.12031 50.839C5.12031 51.8844 5.34431 52.6204 5.79231 53.047C6.24031 53.4524 6.96565 53.7297 7.96831 53.879L16.6403 55.095C17.7496 55.2444 18.5283 55.1804 18.9763 54.903C19.4243 54.6257 19.6483 53.9644 19.6483 52.919C19.6483 51.8524 19.4243 51.1164 18.9763 50.711C18.5283 50.3057 17.7496 50.0284 16.6403 49.879L14.5603 49.559L14.5603 48.023L16.1923 48.247C17.387 48.4177 18.3043 48.6844 18.9443 49.047C19.5843 49.4097 20.0323 49.911 20.2883 50.551C20.523 51.191 20.6403 52.0124 20.6403 53.015ZM20.3523 42.6863C20.3523 43.1343 20.299 43.5289 20.1923 43.8703C20.0643 44.2116 19.883 44.4889 19.6483 44.7023C19.3923 44.9156 19.0723 45.0649 18.6883 45.1503C18.3043 45.2143 17.835 45.2143 17.2803 45.1503L5.50431 43.4543L5.50431 44.8303L4.67231 44.7023L4.48031 43.2623L1.50431 42.4943L1.50431 41.4063L4.48031 41.8223L4.48031 38.2703L5.50431 38.3983L5.50431 41.9503L17.0243 43.5823C17.6643 43.6676 18.1976 43.6249 18.6243 43.4543C19.0296 43.2623 19.2323 42.8036 19.2323 42.0783C19.2323 41.7796 19.2216 41.4596 19.2003 41.1183C19.179 40.7556 19.1576 40.4889 19.1363 40.3183L20.1603 40.4783C20.1816 40.6063 20.2136 40.7876 20.2563 41.0223C20.2776 41.2356 20.299 41.4916 20.3203 41.7903C20.3416 42.0676 20.3523 42.3663 20.3523 42.6863ZM20.6403 34.64C20.6403 35.6214 20.5123 36.4107 20.2563 37.008C20.0003 37.584 19.563 37.968 18.9443 38.16C18.3043 38.352 17.387 38.3627 16.1923 38.192L8.06431 37.04C6.57098 36.8267 5.56831 36.336 5.05631 35.568C4.52298 34.7787 4.25631 33.7014 4.25631 32.336C4.25631 30.6934 4.58698 29.584 5.24831 29.008C5.88831 28.432 6.98698 28.304 8.54431 28.624C9.48298 28.8374 10.2403 29.2534 10.8163 29.872C11.3923 30.4907 11.8403 31.2054 12.1603 32.016C12.4803 32.8267 12.715 33.616 12.8643 34.384C12.9923 35.152 13.0776 35.7707 13.1203 36.24L16.5123 36.72C17.6643 36.8907 18.475 36.8374 18.9443 36.56C19.3923 36.2614 19.6163 35.5894 19.6163 34.544C19.6163 33.4774 19.3923 32.7414 18.9443 32.336C18.4963 31.9094 17.6856 31.6214 16.5123 31.472L14.6883 31.216L14.6883 29.712L16.3523 29.936C17.483 30.0854 18.3576 30.3307 18.9763 30.672C19.595 31.0134 20.0323 31.504 20.2883 32.144C20.523 32.7627 20.6403 33.5947 20.6403 34.64ZM12.0963 36.08C12.0536 35.6107 11.979 35.0774 11.8723 34.48C11.7443 33.8614 11.5523 33.2534 11.2963 32.656C11.019 32.0587 10.6563 31.5467 10.2083 31.12C9.76031 30.672 9.19498 30.3734 8.51231 30.224C7.46698 29.968 6.65631 29.968 6.08031 30.224C5.48298 30.48 5.18431 31.1627 5.18431 32.272C5.18431 33.3174 5.40831 34.0854 5.85631 34.576C6.30431 35.0667 7.09365 35.3974 8.22431 35.568L12.0963 36.08ZM20.3203 21.2895L0.00031277 18.4095L0.000312788 16.9055L20.3203 19.7855L20.3203 21.2895ZM20.5763 12.6453C20.5763 13.4986 20.459 14.1706 20.2243 14.6613C19.9896 15.1306 19.6803 15.4613 19.2963 15.6533C18.891 15.8453 18.443 15.9413 17.9523 15.9413C17.4403 15.9199 16.9176 15.8773 16.3843 15.8133L4.48031 14.1493L4.48031 12.6133L16.0963 14.2453C16.523 14.3093 16.939 14.3519 17.3443 14.3733C17.7283 14.3946 18.0803 14.3626 18.4003 14.2773C18.7203 14.1706 18.9763 13.9466 19.1683 13.6053C19.339 13.2426 19.4243 12.7306 19.4243 12.0693C19.4243 11.4293 19.3176 10.9173 19.1043 10.5333C18.8696 10.1279 18.603 9.81861 18.3043 9.60528C17.9843 9.39195 17.6963 9.23195 17.4403 9.12528L4.48031 7.33328L4.48031 5.79728L20.3203 8.00528L20.3203 9.31728L18.6563 9.18928C19.3603 9.53061 19.8616 10.0319 20.1603 10.6933C20.4376 11.3333 20.5763 11.9839 20.5763 12.6453ZM20.3203 4.35203L4.48031 2.11203L4.48031 0.60803L20.3203 2.84803L20.3203 4.35203ZM2.49631 0.92803C2.49631 1.18403 2.41098 1.39736 2.24031 1.56803C2.04831 1.7387 1.82431 1.82403 1.56831 1.82403C1.33365 1.82403 1.13098 1.7387 0.960314 1.56803C0.789647 1.39736 0.704313 1.18403 0.704313 0.92803C0.704313 0.67203 0.789647 0.458697 0.960314 0.28803C1.13098 0.0960303 1.33365 3.0231e-05 1.56831 3.02355e-05C1.82431 3.02404e-05 2.04831 0.0960303 2.24031 0.28803C2.41098 0.458697 2.49631 0.67203 2.49631 0.92803Z" fill="#990000"/>
</svg>
