<svg width="25" height="175" viewBox="0 0 25 175" fill="none" xmlns="http://www.w3.org/2000/svg">
<path d="M3.45591 3.072C3.45591 2.816 3.48791 2.496 3.55191 2.112C3.61591 1.728 3.76525 1.36533 3.99991 1.024C4.25591 0.682667 4.65058 0.426667 5.18391 0.256C5.71725 0.0853336 6.46391 0.074667 7.42391 0.224L16.0319 1.6C17.2266 1.792 18.0906 2.09067 18.6239 2.496C19.1572 2.90133 19.4879 3.37067 19.6159 3.904C19.7652 4.43733 19.8399 4.98133 19.8399 5.536C19.8399 6.21867 19.7226 6.85867 19.4879 7.456C19.2532 8.05333 18.8586 8.42667 18.3039 8.576L19.5519 8.736L19.5519 10.304L3.71191 8.064L3.71191 6.688L6.43191 7.072C6.00525 6.90133 5.55725 6.656 5.08791 6.336C4.63991 6.016 4.25591 5.58933 3.93591 5.056C3.61591 4.544 3.45591 3.88267 3.45591 3.072ZM4.44791 3.616C4.44791 4.128 4.58658 4.58667 4.86391 4.992C5.16258 5.39733 5.53591 5.73867 5.98391 6.016C6.43191 6.29333 6.90125 6.51733 7.39191 6.688C7.88258 6.88 8.33058 7.02933 8.73591 7.136C9.14125 7.24267 9.43991 7.30667 9.63191 7.328L17.1199 8.384C17.2479 8.34133 17.4506 8.24533 17.7279 8.096C18.0052 7.968 18.2612 7.73333 18.4959 7.392C18.7519 7.072 18.8799 6.56 18.8799 5.856C18.8799 5.10933 18.7412 4.544 18.4639 4.16C18.1866 3.79733 17.8026 3.54133 17.3119 3.392C16.8426 3.24267 16.2986 3.11467 15.6799 3.008L7.19991 1.728C6.55991 1.64267 6.04791 1.65333 5.66391 1.76C5.30125 1.86667 5.03458 2.03733 4.86391 2.272C4.69325 2.50667 4.57591 2.74133 4.51191 2.976C4.46925 3.232 4.44791 3.44533 4.44791 3.616ZM3.39191 15.2775C3.39191 14.5308 3.45591 13.9015 3.58391 13.3895C3.71191 12.8775 3.93591 12.4722 4.25591 12.1735C4.59725 11.8962 5.05591 11.7148 5.63191 11.6295C6.20791 11.5655 6.94391 11.5975 7.83991 11.7255L15.9679 12.8775C17.4612 13.0908 18.4852 13.5495 19.0399 14.2535C19.5946 14.9575 19.8719 16.0668 19.8719 17.5815C19.8719 19.0748 19.5946 20.0988 19.0399 20.6535C18.4852 21.2082 17.4612 21.3788 15.9679 21.1655L13.9839 20.8775L13.9839 19.3415L16.0639 19.6295C17.0666 19.7788 17.7919 19.7148 18.2399 19.4375C18.6879 19.1602 18.9119 18.4988 18.9119 17.4535C18.9119 16.4082 18.6879 15.6722 18.2399 15.2455C17.7919 14.8402 17.0666 14.5628 16.0639 14.4135L7.39191 13.1975C6.28258 13.0482 5.50391 13.1122 5.05591 13.3895C4.60791 13.6668 4.38391 14.3282 4.38391 15.3735C4.38391 16.4402 4.60791 17.1762 5.05591 17.5815C5.50391 17.9868 6.28258 18.2642 7.39191 18.4135L9.47191 18.7335L9.47191 20.2695L7.83991 20.0455C6.64525 19.8748 5.72791 19.6082 5.08791 19.2455C4.44791 18.8828 3.99991 18.3815 3.74391 17.7415C3.50925 17.1015 3.39191 16.2802 3.39191 15.2775ZM3.48791 26.2783C3.48791 25.3823 3.59458 24.6676 3.80791 24.1343C4.04258 23.6223 4.35191 23.2489 4.73591 23.0143C5.14125 22.7796 5.62125 22.6516 6.17591 22.6303C6.73058 22.6089 7.32791 22.6409 7.96791 22.7263L15.5519 23.7823C16.3199 23.8889 17.0239 24.0809 17.6639 24.3583C18.3252 24.6569 18.8479 25.1263 19.2319 25.7663C19.6159 26.4276 19.8079 27.3663 19.8079 28.5823C19.8079 29.4783 19.6906 30.1823 19.4559 30.6943C19.2426 31.2276 18.9332 31.6009 18.5279 31.8143C18.1439 32.0489 17.6959 32.1769 17.1839 32.1983C16.6719 32.2196 16.1279 32.1876 15.5519 32.1023L7.96791 31.0783C7.11458 30.9503 6.34658 30.7369 5.66391 30.4383C4.98125 30.1396 4.44791 29.6596 4.06391 28.9983C3.67991 28.3583 3.48791 27.4516 3.48791 26.2783ZM4.54391 26.4063C4.54391 27.2383 4.69325 27.8569 4.99191 28.2623C5.31191 28.6889 5.71725 28.9876 6.20791 29.1583C6.71991 29.3289 7.24258 29.4463 7.77591 29.5103L15.5519 30.5983C16.0852 30.6836 16.5972 30.7049 17.0879 30.6623C17.5786 30.6409 17.9732 30.4703 18.2719 30.1503C18.5919 29.8303 18.7519 29.2543 18.7519 28.4223C18.7519 27.6116 18.5919 26.9929 18.2719 26.5663C17.9732 26.1609 17.5786 25.8729 17.0879 25.7023C16.5972 25.5316 16.0852 25.4036 15.5519 25.3183L7.77591 24.2303C7.24258 24.1663 6.71991 24.1449 6.20791 24.1663C5.71725 24.1876 5.31191 24.3583 4.99191 24.6783C4.69325 24.9983 4.54391 25.5743 4.54391 26.4063ZM3.71191 33.6913L19.5519 35.8993L19.5519 37.4353L13.3439 36.5073C13.7706 36.6353 14.3359 36.8273 15.0399 37.0833C15.7439 37.3606 16.4479 37.7019 17.1519 38.1073C17.8772 38.5339 18.4852 39.0353 18.9759 39.6113C19.4666 40.1873 19.7119 40.8273 19.7119 41.5313C19.7119 41.6166 19.7119 41.7233 19.7119 41.8513C19.7119 41.9793 19.7012 42.0753 19.6799 42.1393L18.3359 41.9153C18.3572 41.8726 18.3679 41.7979 18.3679 41.6913C18.3679 41.6059 18.3679 41.5099 18.3679 41.4033C18.3679 40.8486 18.1332 40.3153 17.6639 39.8033C17.1946 39.3126 16.5866 38.8433 15.8399 38.3953C15.0932 37.9686 14.2719 37.5846 13.3759 37.2433C12.4799 36.9019 11.5839 36.6139 10.6879 36.3793C9.79191 36.1446 8.98125 35.9739 8.25591 35.8673L3.71191 35.2273L3.71191 33.6913ZM3.45591 45.0513C3.45591 44.2406 3.56258 43.5899 3.77591 43.0993C3.98925 42.6299 4.28791 42.2886 4.67191 42.0753C5.05591 41.8619 5.51458 41.7446 6.04791 41.7233C6.60258 41.7019 7.21058 41.7339 7.87191 41.8193L15.8079 42.9393C16.5546 43.0459 17.2266 43.2379 17.8239 43.5153C18.4426 43.7926 18.9332 44.2193 19.2959 44.7953C19.6586 45.3926 19.8399 46.2033 19.8399 47.2273C19.8399 48.1019 19.7119 48.7633 19.4559 49.2113C19.2212 49.6806 18.9119 50.0006 18.5279 50.1713L23.8719 50.9073L23.8719 52.4433L3.71191 49.5953L3.71191 48.5393L5.21591 48.5713C4.91725 48.4219 4.62925 48.2086 4.35191 47.9313C4.09591 47.6539 3.88258 47.2806 3.71191 46.8113C3.54125 46.3419 3.45591 45.7553 3.45591 45.0513ZM4.44791 45.4353C4.44791 46.1179 4.56525 46.6619 4.79991 47.0673C5.05591 47.4939 5.38658 47.8139 5.79191 48.0273C6.19725 48.2406 6.64525 48.4006 7.13591 48.5073C7.62658 48.6139 8.09591 48.6886 8.54391 48.7313C9.97325 48.9446 11.4026 49.1473 12.8319 49.3393C14.2612 49.5313 15.6906 49.7339 17.1199 49.9473C17.3546 49.9259 17.5999 49.8406 17.8559 49.6913C18.1119 49.5419 18.3359 49.2966 18.5279 48.9553C18.7412 48.6353 18.8479 48.1553 18.8479 47.5153C18.8479 46.6406 18.6772 45.9899 18.3359 45.5633C17.9946 45.1579 17.5679 44.8913 17.0559 44.7633C16.5439 44.6353 16.0106 44.5286 15.4559 44.4433L7.77591 43.3553C7.37058 43.3126 6.96525 43.2699 6.55991 43.2273C6.15458 43.2059 5.79191 43.2486 5.47191 43.3553C5.15191 43.4619 4.89591 43.6646 4.70391 43.9633C4.53325 44.2833 4.44791 44.7739 4.44791 45.4353ZM3.45591 56.197C3.45591 55.941 3.48791 55.621 3.55191 55.237C3.61591 54.853 3.76524 54.4903 3.99991 54.149C4.25591 53.8077 4.65058 53.5517 5.18391 53.381C5.71725 53.2103 6.46391 53.1997 7.42391 53.349L16.0319 54.725C17.2266 54.917 18.0906 55.2157 18.6239 55.621C19.1572 56.0263 19.4879 56.4957 19.6159 57.029C19.7652 57.5623 19.8399 58.1063 19.8399 58.661C19.8399 59.3437 19.7226 59.9837 19.4879 60.581C19.2532 61.1783 18.8586 61.5517 18.3039 61.701L19.5519 61.861L19.5519 63.429L3.71191 61.189L3.71191 59.813L6.43191 60.197C6.00524 60.0263 5.55724 59.781 5.08791 59.461C4.63991 59.141 4.25591 58.7143 3.93591 58.181C3.61591 57.669 3.45591 57.0077 3.45591 56.197ZM4.44791 56.741C4.44791 57.253 4.58658 57.7117 4.86391 58.117C5.16258 58.5223 5.53591 58.8637 5.98391 59.141C6.43191 59.4183 6.90124 59.6423 7.39191 59.813C7.88258 60.005 8.33058 60.1543 8.73591 60.261C9.14125 60.3677 9.43991 60.4317 9.63191 60.453L17.1199 61.509C17.2479 61.4663 17.4506 61.3703 17.7279 61.221C18.0052 61.093 18.2612 60.8583 18.4959 60.517C18.7519 60.197 18.8799 59.685 18.8799 58.981C18.8799 58.2343 18.7412 57.669 18.4639 57.285C18.1866 56.9223 17.8026 56.6663 17.3119 56.517C16.8426 56.3677 16.2986 56.2397 15.6799 56.133L7.19991 54.853C6.55991 54.7677 6.04791 54.7783 5.66391 54.885C5.30125 54.9917 5.03458 55.1623 4.86391 55.397C4.69324 55.6317 4.57591 55.8663 4.51191 56.101C4.46924 56.357 4.44791 56.5703 4.44791 56.741ZM21.1199 59.813C21.1199 59.237 21.2159 58.7677 21.4079 58.405C21.5999 58.0423 21.8346 57.765 22.1119 57.573C22.3892 57.4023 22.6879 57.285 23.0079 57.221C23.3279 57.1783 23.6159 57.1677 23.8719 57.189L23.8719 58.149C23.2532 58.1703 22.7839 58.341 22.4639 58.661C22.1439 58.981 21.9839 59.4077 21.9839 59.941C21.9839 60.517 22.1332 61.0077 22.4319 61.413C22.7519 61.8397 23.2319 62.1383 23.8719 62.309L23.8719 63.269C23.4879 63.1837 23.0826 63.0023 22.6559 62.725C22.2292 62.469 21.8666 62.0957 21.5679 61.605C21.2692 61.1357 21.1199 60.5383 21.1199 59.813ZM-8.91879e-05 70.3043L19.5519 73.0243L19.5519 74.4003L18.1119 74.3043C18.5812 74.5603 18.9759 74.9229 19.2959 75.3923C19.6159 75.8829 19.7759 76.6296 19.7759 77.6323C19.7759 78.7203 19.5946 79.4989 19.2319 79.9683C18.8692 80.4589 18.3786 80.7576 17.7599 80.8643C17.1626 80.9709 16.4799 80.9603 15.7119 80.8323L7.87191 79.7443C7.06124 79.6376 6.32524 79.4456 5.66391 79.1683C5.00258 78.9123 4.46924 78.4856 4.06391 77.8883C3.67991 77.3123 3.48791 76.4696 3.48791 75.3603C3.48791 74.5496 3.61591 73.9096 3.87191 73.4403C4.12791 72.9709 4.43724 72.6509 4.79991 72.4803L-8.92536e-05 71.8083L-8.91879e-05 70.3043ZM4.51191 75.1043C4.51191 76.0003 4.67191 76.6509 4.99191 77.0563C5.33324 77.4616 5.74924 77.7389 6.23991 77.8883C6.75191 78.0376 7.27458 78.1443 7.80791 78.2083L15.4239 79.2643C15.8292 79.3283 16.2239 79.3709 16.6079 79.3923C17.0132 79.4136 17.3759 79.3709 17.6959 79.2643C18.0159 79.1789 18.2612 78.9656 18.4319 78.6243C18.6239 78.2829 18.7199 77.7709 18.7199 77.0883C18.7199 76.4269 18.5919 75.8936 18.3359 75.4883C18.1012 75.1043 17.7919 74.8056 17.4079 74.5923C17.0239 74.3789 16.5972 74.2189 16.1279 74.1123C15.6799 74.0269 15.2532 73.9629 14.8479 73.9203L7.58391 72.8963C7.02924 72.8109 6.51724 72.7789 6.04791 72.8003C5.57858 72.8429 5.20524 73.0243 4.92791 73.3443C4.65058 73.6856 4.51191 74.2723 4.51191 75.1043ZM3.71191 82.4413L19.5519 84.6493L19.5519 86.1853L13.3439 85.2573C13.7706 85.3853 14.3359 85.5773 15.0399 85.8333C15.7439 86.1106 16.4479 86.4519 17.1519 86.8573C17.8772 87.2839 18.4852 87.7853 18.9759 88.3613C19.4666 88.9373 19.7119 89.5773 19.7119 90.2813C19.7119 90.3666 19.7119 90.4733 19.7119 90.6013C19.7119 90.7293 19.7012 90.8253 19.6799 90.8893L18.3359 90.6653C18.3572 90.6226 18.3679 90.5479 18.3679 90.4413C18.3679 90.3559 18.3679 90.2599 18.3679 90.1533C18.3679 89.5986 18.1332 89.0653 17.6639 88.5533C17.1946 88.0626 16.5866 87.5933 15.8399 87.1453C15.0932 86.7186 14.2719 86.3346 13.3759 85.9933C12.4799 85.6519 11.5839 85.3639 10.6879 85.1293C9.79191 84.8946 8.98124 84.7239 8.25591 84.6173L3.71191 83.9773L3.71191 82.4413ZM3.48791 94.1533C3.48791 93.2573 3.59458 92.5426 3.80791 92.0093C4.04258 91.4973 4.35191 91.1239 4.73591 90.8893C5.14124 90.6546 5.62124 90.5266 6.17591 90.5053C6.73058 90.4839 7.32791 90.5159 7.96791 90.6013L15.5519 91.6573C16.3199 91.7639 17.0239 91.9559 17.6639 92.2333C18.3252 92.5319 18.8479 93.0013 19.2319 93.6413C19.6159 94.3026 19.8079 95.2413 19.8079 96.4573C19.8079 97.3533 19.6906 98.0573 19.4559 98.5693C19.2426 99.1026 18.9332 99.4759 18.5279 99.6893C18.1439 99.9239 17.6959 100.052 17.1839 100.073C16.6719 100.095 16.1279 100.063 15.5519 99.9773L7.96791 98.9533C7.11458 98.8253 6.34658 98.6119 5.66391 98.3133C4.98124 98.0146 4.44791 97.5346 4.06391 96.8733C3.67991 96.2333 3.48791 95.3266 3.48791 94.1533ZM4.54391 94.2813C4.54391 95.1133 4.69324 95.7319 4.99191 96.1373C5.31191 96.5639 5.71724 96.8626 6.20791 97.0333C6.71991 97.2039 7.24258 97.3213 7.77591 97.3853L15.5519 98.4733C16.0852 98.5586 16.5972 98.5799 17.0879 98.5373C17.5786 98.5159 17.9732 98.3453 18.2719 98.0253C18.5919 97.7053 18.7519 97.1293 18.7519 96.2973C18.7519 95.4866 18.5919 94.8679 18.2719 94.4413C17.9732 94.0359 17.5786 93.7479 17.0879 93.5773C16.5972 93.4066 16.0852 93.2786 15.5519 93.1933L7.77591 92.1053C7.24258 92.0413 6.71991 92.0199 6.20791 92.0413C5.71724 92.0626 5.31191 92.2333 4.99191 92.5533C4.69324 92.8733 4.54391 93.4493 4.54391 94.2813ZM3.71191 101.534L19.5519 103.774L19.5519 105.278L3.71191 103.038L3.71191 101.534ZM21.5359 104.958C21.5359 104.702 21.6212 104.489 21.7919 104.318C21.9839 104.148 22.2079 104.062 22.4639 104.062C22.6986 104.062 22.9012 104.148 23.0719 104.318C23.2426 104.489 23.3279 104.702 23.3279 104.958C23.3279 105.214 23.2426 105.428 23.0719 105.598C22.9012 105.79 22.6986 105.886 22.4639 105.886C22.2079 105.886 21.9839 105.79 21.7919 105.598C21.6212 105.428 21.5359 105.214 21.5359 104.958ZM3.39191 110.403C3.39191 109.421 3.51991 108.632 3.77591 108.035C4.03191 107.459 4.46924 107.075 5.08791 106.883C5.72791 106.691 6.64524 106.68 7.83991 106.851L15.9679 108.003C17.4612 108.216 18.4639 108.707 18.9759 109.475C19.5092 110.264 19.7759 111.341 19.7759 112.707C19.7759 114.349 19.4452 115.459 18.7839 116.035C18.1439 116.611 17.0452 116.739 15.4879 116.419C14.5492 116.205 13.7919 115.789 13.2159 115.171C12.6399 114.552 12.1919 113.837 11.8719 113.027C11.5519 112.216 11.3172 111.427 11.1679 110.659C11.0399 109.891 10.9546 109.272 10.9119 108.803L7.51991 108.323C6.36791 108.152 5.55724 108.205 5.08791 108.483C4.63991 108.781 4.41591 109.453 4.41591 110.499C4.41591 111.565 4.63991 112.301 5.08791 112.707C5.53591 113.133 6.34658 113.421 7.51991 113.571L9.34391 113.827L9.34391 115.331L7.67991 115.107C6.54924 114.957 5.67458 114.712 5.05591 114.371C4.43724 114.029 3.99991 113.539 3.74391 112.899C3.50924 112.28 3.39191 111.448 3.39191 110.403ZM11.9359 108.963C11.9786 109.432 12.0532 109.965 12.1599 110.563C12.2879 111.181 12.4799 111.789 12.7359 112.387C13.0132 112.984 13.3759 113.496 13.8239 113.923C14.2719 114.371 14.8372 114.669 15.5199 114.819C16.5652 115.075 17.3759 115.075 17.9519 114.819C18.5492 114.563 18.8479 113.88 18.8479 112.771C18.8479 111.725 18.6239 110.957 18.1759 110.467C17.7279 109.976 16.9386 109.645 15.8079 109.475L11.9359 108.963ZM3.39191 121.371C3.39191 120.625 3.45591 119.995 3.58391 119.483C3.71191 118.971 3.93591 118.566 4.25591 118.267C4.59724 117.99 5.05591 117.809 5.63191 117.723C6.20791 117.659 6.94391 117.691 7.83991 117.819L15.9679 118.971C17.4612 119.185 18.4852 119.643 19.0399 120.347C19.5946 121.051 19.8719 122.161 19.8719 123.675C19.8719 125.169 19.5946 126.193 19.0399 126.747C18.4852 127.302 17.4612 127.473 15.9679 127.259L13.9839 126.971L13.9839 125.435L16.0639 125.723C17.0666 125.873 17.7919 125.809 18.2399 125.531C18.6879 125.254 18.9119 124.593 18.9119 123.547C18.9119 122.502 18.6879 121.766 18.2399 121.339C17.7919 120.934 17.0666 120.657 16.0639 120.507L7.39191 119.291C6.28258 119.142 5.50391 119.206 5.05591 119.483C4.60791 119.761 4.38391 120.422 4.38391 121.467C4.38391 122.534 4.60791 123.27 5.05591 123.675C5.50391 124.081 6.28258 124.358 7.39191 124.507L9.47191 124.827L9.47191 126.363L7.83991 126.139C6.64524 125.969 5.72791 125.702 5.08791 125.339C4.44791 124.977 3.99991 124.475 3.74391 123.835C3.50924 123.195 3.39191 122.374 3.39191 121.371ZM3.67991 131.7C3.67991 131.252 3.73324 130.857 3.83991 130.516C3.96791 130.175 4.14924 129.897 4.38391 129.684C4.63991 129.471 4.95991 129.321 5.34391 129.236C5.72791 129.172 6.19724 129.172 6.75191 129.236L18.5279 130.932L18.5279 129.556L19.3599 129.684L19.5519 131.124L22.5279 131.892L22.5279 132.98L19.5519 132.564L19.5519 136.116L18.5279 135.988L18.5279 132.436L7.00791 130.804C6.36791 130.719 5.83458 130.761 5.40791 130.932C5.00258 131.124 4.79991 131.583 4.79991 132.308C4.79991 132.607 4.81057 132.927 4.83191 133.268C4.85324 133.631 4.87457 133.897 4.89591 134.068L3.87191 133.908C3.85057 133.78 3.81857 133.599 3.77591 133.364C3.75457 133.151 3.73324 132.895 3.71191 132.596C3.69057 132.319 3.67991 132.02 3.67991 131.7ZM3.39191 139.746C3.39191 138.765 3.51991 137.976 3.77591 137.378C4.03191 136.802 4.46924 136.418 5.08791 136.226C5.72791 136.034 6.64524 136.024 7.83991 136.194L15.9679 137.346C17.4612 137.56 18.4639 138.05 18.9759 138.818C19.5092 139.608 19.7759 140.685 19.7759 142.05C19.7759 143.693 19.4452 144.802 18.7839 145.378C18.1439 145.954 17.0452 146.082 15.4879 145.762C14.5492 145.549 13.7919 145.133 13.2159 144.514C12.6399 143.896 12.1919 143.181 11.8719 142.37C11.5519 141.56 11.3172 140.77 11.1679 140.002C11.0399 139.234 10.9546 138.616 10.9119 138.146L7.51991 137.666C6.36791 137.496 5.55724 137.549 5.08791 137.826C4.63991 138.125 4.41591 138.797 4.41591 139.842C4.41591 140.909 4.63991 141.645 5.08791 142.05C5.53591 142.477 6.34657 142.765 7.51991 142.914L9.34391 143.17L9.34391 144.674L7.67991 144.45C6.54924 144.301 5.67457 144.056 5.05591 143.714C4.43724 143.373 3.99991 142.882 3.74391 142.242C3.50924 141.624 3.39191 140.792 3.39191 139.746ZM11.9359 138.306C11.9786 138.776 12.0532 139.309 12.1599 139.906C12.2879 140.525 12.4799 141.133 12.7359 141.73C13.0132 142.328 13.3759 142.84 13.8239 143.266C14.2719 143.714 14.8372 144.013 15.5199 144.162C16.5652 144.418 17.3759 144.418 17.9519 144.162C18.5492 143.906 18.8479 143.224 18.8479 142.114C18.8479 141.069 18.6239 140.301 18.1759 139.81C17.7279 139.32 16.9386 138.989 15.8079 138.818L11.9359 138.306ZM3.71191 153.097L24.0319 155.977L24.0319 157.481L3.71191 154.601L3.71191 153.097ZM3.45591 161.741C3.45591 160.888 3.57324 160.216 3.80791 159.725C4.04257 159.256 4.35191 158.925 4.73591 158.733C5.14124 158.541 5.58924 158.445 6.07991 158.445C6.59191 158.466 7.11457 158.509 7.64791 158.573L19.5519 160.237L19.5519 161.773L7.93591 160.141C7.50924 160.077 7.09324 160.034 6.68791 160.013C6.30391 159.992 5.95191 160.024 5.63191 160.109C5.31191 160.216 5.05591 160.44 4.86391 160.781C4.69324 161.144 4.60791 161.656 4.60791 162.317C4.60791 162.957 4.71457 163.469 4.92791 163.853C5.16257 164.258 5.42924 164.568 5.72791 164.781C6.04791 164.994 6.33591 165.154 6.59191 165.261L19.5519 167.053L19.5519 168.589L3.71191 166.381L3.71191 165.069L5.37591 165.197C4.67191 164.856 4.17057 164.354 3.87191 163.693C3.59457 163.053 3.45591 162.402 3.45591 161.741ZM3.71191 170.034L19.5519 172.274L19.5519 173.778L3.71191 171.538L3.71191 170.034ZM21.5359 173.458C21.5359 173.202 21.6212 172.989 21.7919 172.818C21.9839 172.648 22.2079 172.562 22.4639 172.562C22.6986 172.562 22.9012 172.648 23.0719 172.818C23.2426 172.989 23.3279 173.202 23.3279 173.458C23.3279 173.714 23.2426 173.928 23.0719 174.098C22.9012 174.29 22.6986 174.386 22.4639 174.386C22.2079 174.386 21.9839 174.29 21.7919 174.098C21.6212 173.928 21.5359 173.714 21.5359 173.458Z" fill="#990000"/>
</svg>
