<svg width="21" height="107" viewBox="0 0 21 107" fill="none" xmlns="http://www.w3.org/2000/svg">
<path d="M0.000312274 3.744C0.000312307 2.99734 0.0643123 2.368 0.192312 1.856C0.320312 1.344 0.544312 0.938668 0.864312 0.640002C1.20565 0.362668 1.66431 0.181335 2.24031 0.0960018C2.81631 0.0320018 3.55231 0.0640018 4.44831 0.192002L12.5763 1.344C14.0696 1.55734 15.0936 2.016 15.6483 2.72C16.203 3.424 16.4803 4.53334 16.4803 6.048C16.4803 7.54134 16.203 8.56534 15.6483 9.12C15.0936 9.67467 14.0696 9.84534 12.5763 9.632L10.5923 9.344L10.5923 7.808L12.6723 8.096C13.675 8.24534 14.4003 8.18134 14.8483 7.904C15.2963 7.62667 15.5203 6.96534 15.5203 5.92C15.5203 4.87467 15.2963 4.13867 14.8483 3.712C14.4003 3.30667 13.675 3.02934 12.6723 2.88L4.00031 1.664C2.89098 1.51467 2.11231 1.57867 1.66431 1.856C1.21631 2.13334 0.992312 2.79467 0.992312 3.84C0.992312 4.90667 1.21631 5.64267 1.66431 6.048C2.11231 6.45334 2.89098 6.73067 4.00031 6.88L6.08031 7.2L6.08031 8.736L4.44831 8.512C3.25365 8.34134 2.33631 8.07467 1.69631 7.712C1.05631 7.34934 0.608312 6.848 0.352312 6.208C0.117646 5.568 0.00031223 4.74667 0.000312274 3.744ZM0.0963118 14.7448C0.0963118 13.8488 0.202979 13.1341 0.416312 12.6008C0.650979 12.0888 0.960312 11.7154 1.34431 11.4808C1.74965 11.2461 2.22965 11.1181 2.78431 11.0968C3.33898 11.0754 3.93631 11.1074 4.57631 11.1928L12.1603 12.2488C12.9283 12.3554 13.6323 12.5474 14.2723 12.8248C14.9336 13.1234 15.4563 13.5928 15.8403 14.2328C16.2243 14.8941 16.4163 15.8328 16.4163 17.0488C16.4163 17.9448 16.299 18.6488 16.0643 19.1608C15.851 19.6941 15.5416 20.0674 15.1363 20.2808C14.7523 20.5154 14.3043 20.6434 13.7923 20.6648C13.2803 20.6861 12.7363 20.6541 12.1603 20.5688L4.57631 19.5448C3.72298 19.4168 2.95498 19.2034 2.27231 18.9048C1.58965 18.6061 1.05631 18.1261 0.672312 17.4648C0.288312 16.8248 0.0963118 15.9181 0.0963118 14.7448ZM1.15231 14.8728C1.15231 15.7048 1.30165 16.3234 1.60031 16.7288C1.92031 17.1554 2.32565 17.4541 2.81631 17.6248C3.32831 17.7954 3.85098 17.9128 4.38431 17.9768L12.1603 19.0648C12.6936 19.1501 13.2056 19.1714 13.6963 19.1288C14.187 19.1074 14.5816 18.9368 14.8803 18.6168C15.2003 18.2968 15.3603 17.7208 15.3603 16.8888C15.3603 16.0781 15.2003 15.4594 14.8803 15.0328C14.5816 14.6274 14.187 14.3394 13.6963 14.1688C13.2056 13.9981 12.6936 13.8701 12.1603 13.7848L4.38431 12.6968C3.85098 12.6328 3.32831 12.6114 2.81631 12.6328C2.32565 12.6541 1.92031 12.8248 1.60031 13.1448C1.30165 13.4648 1.15231 14.0408 1.15231 14.8728ZM0.320311 22.1578L16.1603 24.3658L16.1603 25.6138L14.4963 25.5818C15.2003 25.9231 15.691 26.4138 15.9683 27.0538C16.267 27.6938 16.4163 28.3444 16.4163 29.0058C16.4163 29.8804 16.299 30.5524 16.0643 31.0218C15.8296 31.4911 15.5096 31.8111 15.1043 31.9818C14.7203 32.1738 14.2723 32.2698 13.7603 32.2698C13.2696 32.2698 12.7576 32.2378 12.2243 32.1738L0.320311 30.5418L0.320311 29.0058L11.9363 30.6378C12.3416 30.6804 12.7363 30.7124 13.1203 30.7338C13.5256 30.7764 13.8776 30.7444 14.1763 30.6378C14.4963 30.5311 14.7523 30.3071 14.9443 29.9658C15.1363 29.6458 15.2323 29.1444 15.2323 28.4618C15.2323 27.8431 15.115 27.3311 14.8803 26.9258C14.667 26.5418 14.411 26.2324 14.1123 25.9978C13.8136 25.7844 13.5363 25.6244 13.2803 25.5178L0.320311 23.6938L0.320311 22.1578ZM0.288311 36.9478C0.288311 36.4998 0.341644 36.1051 0.448311 35.7638C0.576311 35.4224 0.757644 35.1451 0.992311 34.9318C1.24831 34.7184 1.56831 34.5691 1.95231 34.4838C2.33631 34.4198 2.80564 34.4198 3.36031 34.4838L15.1363 36.1798L15.1363 34.8038L15.9683 34.9318L16.1603 36.3718L19.1363 37.1398L19.1363 38.2278L16.1603 37.8118L16.1603 41.3638L15.1363 41.2358L15.1363 37.6838L3.61631 36.0518C2.97631 35.9664 2.44298 36.0091 2.01631 36.1798C1.61098 36.3718 1.40831 36.8304 1.40831 37.5558C1.40831 37.8544 1.41898 38.1744 1.44031 38.5158C1.46164 38.8784 1.48298 39.1451 1.50431 39.3158L0.480311 39.1558C0.458977 39.0278 0.426977 38.8464 0.384311 38.6118C0.362977 38.3984 0.341644 38.1424 0.320311 37.8438C0.298977 37.5664 0.288311 37.2678 0.288311 36.9478ZM0.320311 41.3453L16.1603 43.5533L16.1603 45.0893L9.95231 44.1613C10.379 44.2893 10.9443 44.4813 11.6483 44.7373C12.3523 45.0146 13.0563 45.3559 13.7603 45.7613C14.4856 46.1879 15.0936 46.6893 15.5843 47.2653C16.075 47.8413 16.3203 48.4813 16.3203 49.1853C16.3203 49.2706 16.3203 49.3773 16.3203 49.5053C16.3203 49.6333 16.3096 49.7293 16.2883 49.7933L14.9443 49.5693C14.9656 49.5266 14.9763 49.4519 14.9763 49.3453C14.9763 49.2599 14.9763 49.1639 14.9763 49.0573C14.9763 48.5026 14.7416 47.9693 14.2723 47.4573C13.803 46.9666 13.195 46.4973 12.4483 46.0493C11.7016 45.6226 10.8803 45.2386 9.98431 44.8973C9.08831 44.5559 8.19231 44.2679 7.29631 44.0333C6.40031 43.7986 5.58964 43.6279 4.86431 43.5213L0.320311 42.8813L0.320311 41.3453ZM0.0963101 53.0573C0.0963102 52.1613 0.202977 51.4466 0.41631 50.9133C0.650977 50.4013 0.96031 50.0279 1.34431 49.7933C1.74964 49.5586 2.22964 49.4306 2.78431 49.4093C3.33898 49.3879 3.93631 49.4199 4.57631 49.5053L12.1603 50.5613C12.9283 50.6679 13.6323 50.8599 14.2723 51.1373C14.9336 51.4359 15.4563 51.9053 15.8403 52.5453C16.2243 53.2066 16.4163 54.1453 16.4163 55.3613C16.4163 56.2573 16.299 56.9613 16.0643 57.4733C15.851 58.0066 15.5416 58.3799 15.1363 58.5933C14.7523 58.8279 14.3043 58.9559 13.7923 58.9773C13.2803 58.9986 12.7363 58.9666 12.1603 58.8813L4.57631 57.8573C3.72298 57.7293 2.95498 57.5159 2.27231 57.2173C1.58964 56.9186 1.05631 56.4386 0.67231 55.7773C0.28831 55.1373 0.0963101 54.2306 0.0963101 53.0573ZM1.15231 53.1853C1.15231 54.0173 1.30164 54.6359 1.60031 55.0413C1.92031 55.4679 2.32564 55.7666 2.81631 55.9373C3.32831 56.1079 3.85098 56.2253 4.38431 56.2893L12.1603 57.3773C12.6936 57.4626 13.2056 57.4839 13.6963 57.4413C14.187 57.4199 14.5816 57.2493 14.8803 56.9293C15.2003 56.6093 15.3603 56.0333 15.3603 55.2013C15.3603 54.3906 15.2003 53.7719 14.8803 53.3453C14.5816 52.9399 14.187 52.6519 13.6963 52.4813C13.2056 52.3106 12.6936 52.1826 12.1603 52.0973L4.38431 51.0093C3.85098 50.9453 3.32831 50.9239 2.81631 50.9453C2.32564 50.9666 1.92031 51.1373 1.60031 51.4573C1.30164 51.7773 1.15231 52.3533 1.15231 53.1853ZM0.32031 60.4383L20.6403 63.3183L20.6403 64.8223L0.32031 61.9423L0.32031 60.4383ZM0.000309408 69.3065C0.000309451 68.3252 0.128309 67.5358 0.38431 66.9385C0.64031 66.3625 1.07764 65.9785 1.69631 65.7865C2.33631 65.5945 3.25364 65.5838 4.44831 65.7545L12.5763 66.9065C14.0696 67.1198 15.0723 67.6105 15.5843 68.3785C16.1176 69.1678 16.3843 70.2452 16.3843 71.6105C16.3843 73.2532 16.0536 74.3625 15.3923 74.9385C14.7523 75.5145 13.6536 75.6425 12.0963 75.3225C11.1576 75.1092 10.4003 74.6932 9.82431 74.0745C9.24831 73.4558 8.80031 72.7412 8.48031 71.9305C8.16031 71.1198 7.92564 70.3305 7.77631 69.5625C7.64831 68.7945 7.56298 68.1758 7.52031 67.7065L4.12831 67.2265C2.97631 67.0558 2.16564 67.1092 1.69631 67.3865C1.24831 67.6852 1.02431 68.3572 1.02431 69.4025C1.02431 70.4692 1.24831 71.2052 1.69631 71.6105C2.14431 72.0372 2.95498 72.3252 4.12831 72.4745L5.95231 72.7305L5.95231 74.2345L4.28831 74.0105C3.15764 73.8612 2.28298 73.6158 1.66431 73.2745C1.04564 72.9332 0.608309 72.4425 0.352309 71.8025C0.117643 71.1838 0.000309363 70.3518 0.000309408 69.3065ZM8.54431 67.8665C8.58698 68.3358 8.66164 68.8692 8.76831 69.4665C8.89631 70.0852 9.08831 70.6932 9.34431 71.2905C9.62164 71.8878 9.98431 72.3998 10.4323 72.8265C10.8803 73.2745 11.4456 73.5732 12.1283 73.7225C13.1736 73.9785 13.9843 73.9785 14.5603 73.7225C15.1576 73.4665 15.4563 72.7838 15.4563 71.6745C15.4563 70.6292 15.2323 69.8612 14.7843 69.3705C14.3363 68.8798 13.547 68.5492 12.4163 68.3785L8.54431 67.8665ZM0.064309 79.5073C0.064309 79.2513 0.096309 78.9313 0.160309 78.5473C0.224309 78.1633 0.373642 77.8006 0.608309 77.4593C0.864309 77.1179 1.25898 76.8619 1.79231 76.6913C2.32564 76.5206 3.07231 76.5099 4.03231 76.6593L12.6403 78.0353C13.835 78.2273 14.699 78.5259 15.2323 78.9313C15.7656 79.3366 16.0963 79.8059 16.2243 80.3393C16.3736 80.8726 16.4483 81.4166 16.4483 81.9713C16.4483 82.6539 16.331 83.2939 16.0963 83.8913C15.8616 84.4886 15.467 84.8619 14.9123 85.0113L16.1603 85.1713L16.1603 86.7393L0.320309 84.4993L0.320309 83.1233L3.04031 83.5073C2.61364 83.3366 2.16564 83.0913 1.69631 82.7713C1.24831 82.4513 0.864309 82.0246 0.544309 81.4913C0.224309 80.9793 0.0643089 80.3179 0.064309 79.5073ZM1.05631 80.0513C1.05631 80.5633 1.19498 81.0219 1.47231 81.4273C1.77098 81.8326 2.14431 82.1739 2.59231 82.4513C3.04031 82.7286 3.50964 82.9526 4.00031 83.1233C4.49098 83.3153 4.93898 83.4646 5.34431 83.5713C5.74964 83.6779 6.04831 83.7419 6.24031 83.7633L13.7283 84.8193C13.8563 84.7766 14.059 84.6806 14.3363 84.5313C14.6136 84.4033 14.8696 84.1686 15.1043 83.8273C15.3603 83.5073 15.4883 82.9953 15.4883 82.2913C15.4883 81.5446 15.3496 80.9793 15.0723 80.5953C14.795 80.2326 14.411 79.9766 13.9203 79.8273C13.451 79.6779 12.907 79.5499 12.2883 79.4433L3.80831 78.1633C3.16831 78.0779 2.65631 78.0886 2.27231 78.1953C1.90964 78.3019 1.64298 78.4726 1.47231 78.7073C1.30164 78.9419 1.18431 79.1766 1.12031 79.4113C1.07764 79.6673 1.05631 79.8806 1.05631 80.0513ZM0.320309 86.6568L0.960309 86.7528L15.0723 94.1448L15.0723 89.0248L16.1603 89.1848L16.1603 96.0648L15.4563 95.9688L1.47231 88.6088L1.47231 94.0168L0.320308 93.8248L0.320309 86.6568ZM0.0643081 99.0698C0.0643081 98.8138 0.0963081 98.4938 0.160308 98.1098C0.224308 97.7258 0.373642 97.3631 0.608308 97.0218C0.864308 96.6804 1.25897 96.4244 1.79231 96.2538C2.32564 96.0831 3.07231 96.0724 4.03231 96.2218L12.6403 97.5978C13.835 97.7898 14.699 98.0884 15.2323 98.4938C15.7656 98.8991 16.0963 99.3684 16.2243 99.9018C16.3736 100.435 16.4483 100.979 16.4483 101.534C16.4483 102.216 16.331 102.856 16.0963 103.454C15.8616 104.051 15.467 104.424 14.9123 104.574L16.1603 104.734L16.1603 106.302L0.320308 104.062L0.320308 102.686L3.04031 103.07C2.61364 102.899 2.16564 102.654 1.69631 102.334C1.24831 102.014 0.864308 101.587 0.544308 101.054C0.224308 100.542 0.0643081 99.8804 0.0643081 99.0698ZM1.05631 99.6138C1.05631 100.126 1.19497 100.584 1.47231 100.99C1.77097 101.395 2.14431 101.736 2.59231 102.014C3.04031 102.291 3.50964 102.515 4.00031 102.686C4.49097 102.878 4.93897 103.027 5.34431 103.134C5.74964 103.24 6.04831 103.304 6.24031 103.326L13.7283 104.382C13.8563 104.339 14.059 104.243 14.3363 104.094C14.6136 103.966 14.8696 103.731 15.1043 103.39C15.3603 103.07 15.4883 102.558 15.4883 101.854C15.4883 101.107 15.3496 100.542 15.0723 100.158C14.795 99.7951 14.411 99.5391 13.9203 99.3898C13.451 99.2404 12.907 99.1124 12.2883 99.0058L3.80831 97.7258C3.16831 97.6404 2.65631 97.6511 2.27231 97.7578C1.90964 97.8644 1.64297 98.0351 1.47231 98.2698C1.30164 98.5044 1.18431 98.7391 1.12031 98.9738C1.07764 99.2298 1.05631 99.4431 1.05631 99.6138ZM17.7283 102.686C17.7283 102.11 17.8243 101.64 18.0163 101.278C18.2083 100.915 18.443 100.638 18.7203 100.446C18.9976 100.275 19.2963 100.158 19.6163 100.094C19.9363 100.051 20.2243 100.04 20.4803 100.062L20.4803 101.022C19.8616 101.043 19.3923 101.214 19.0723 101.534C18.7523 101.854 18.5923 102.28 18.5923 102.814C18.5923 103.39 18.7416 103.88 19.0403 104.286C19.3603 104.712 19.8403 105.011 20.4803 105.182L20.4803 106.142C20.0963 106.056 19.691 105.875 19.2643 105.598C18.8376 105.342 18.475 104.968 18.1763 104.478C17.8776 104.008 17.7283 103.411 17.7283 102.686Z" fill="#990000"/>
</svg>
